# xmcd
# 
# Track frame offsets:
#     183
#     11933
#     23750
#     38063
#     50490
#     70940
#     87983
#     103315
#     118550
#     132918
# 
# Disc length: 2084
# 
# Revision: 8
# Processed by: cddbd v1.5.2PL0 Copyright (c) Steve Scherf et al.
# Submitted via: fre:ac v1.0.31
# 
DISCID=8608220a
DTITLE=The J. Geils Band - The Morning After The Original Album Series
DYEAR=1971
DGENRE=Rock/Pop
TTITLE0=I Don't Need You No More
TTITLE1=Whammer Jammer
TTITLE2=So Sharp
TTITLE3=The Usual Place
TTITLE4=Gotta Have Your Love
TTITLE5=Looking For A Love
TTITLE6=Gonna Find Me A New Love
TTITLE7=Cry One More Time
TTITLE8=Floyd's Hotel
TTITLE9=It Ain't What You Do (It's How You Do It!)
EXTD=YEAR: 1971
EXTT0=
EXTT1=
EXTT2=
EXTT3=
EXTT4=
EXTT5=
EXTT6=
EXTT7=
EXTT8=
EXTT9=
PLAYORDER=
